<svg xmlns="http://www.w3.org/2000/svg" viewBox="0 0 101.77 37.32"><defs><style>.cls-1{fill:#ff2f8b;}</style></defs><title>Asset 24</title><g id="Layer_2" data-name="Layer 2"><g id="BACKGROUND"><polygon className="cls-1" points="93.18 9.76 84.69 16.52 76.2 9.76 67.7 16.52 59.21 9.76 50.87 16.4 50.87 16.41 50.8 16.46 42.31 9.71 33.82 16.46 25.32 9.71 16.83 16.46 8.34 9.71 0 16.34 0 17.66 8.34 11.02 16.83 17.78 25.32 11.02 33.82 17.78 42.31 11.02 50.8 17.78 50.9 17.7 50.9 17.69 59.21 11.07 67.7 17.83 76.2 11.07 84.69 17.83 93.18 11.07 101.67 17.83 101.77 17.75 101.77 16.44 101.67 16.52 93.18 9.76"/><polygon className="cls-1" points="101.67 6.81 93.18 0.06 84.69 6.81 76.2 0.06 67.7 6.81 59.21 0.06 50.87 6.69 50.87 6.7 50.8 6.75 42.31 0 33.82 6.75 25.32 0 16.83 6.75 8.34 0 0 6.64 0 7.95 8.34 1.31 16.83 8.07 25.32 1.31 33.82 8.07 42.31 1.31 50.8 8.07 50.9 7.99 50.9 7.98 59.21 1.37 67.7 8.12 76.2 1.37 84.69 8.12 93.18 1.37 101.67 8.12 101.77 8.04 101.77 6.73 101.67 6.81"/><polygon className="cls-1" points="93.18 29.26 84.69 36.01 76.2 29.26 67.7 36.01 59.21 29.26 50.87 35.89 50.87 35.9 50.8 35.96 42.31 29.2 33.82 35.96 25.32 29.2 16.83 35.96 8.34 29.2 0 35.84 0 37.15 8.34 30.52 16.83 37.27 25.32 30.52 33.82 37.27 42.31 30.52 50.8 37.27 50.9 37.19 50.9 37.18 59.21 30.57 67.7 37.32 76.2 30.57 84.69 37.32 93.18 30.57 101.67 37.32 101.77 37.25 101.77 35.93 101.67 36.01 93.18 29.26"/><polygon className="cls-1" points="93.18 19.55 84.69 26.3 76.2 19.55 67.7 26.3 59.21 19.55 50.87 26.18 50.87 26.19 50.8 26.25 42.31 19.49 33.82 26.25 25.32 19.49 16.83 26.25 8.34 19.49 0 26.13 0 27.44 8.34 20.81 16.83 27.56 25.32 20.81 33.82 27.56 42.31 20.81 50.8 27.56 50.9 27.48 50.9 27.48 59.21 20.86 67.7 27.61 76.2 20.86 84.69 27.61 93.18 20.86 101.67 27.61 101.77 27.54 101.77 26.23 101.67 26.3 93.18 19.55"/></g></g></svg>