<?xml version="1.0" encoding="iso-8859-1"?>
<!-- Generator: Adobe Illustrator 19.0.0, SVG Export Plug-In . SVG Version: 6.00 Build 0)  -->
<svg version="1.1" id="Capa_1" xmlns="http://www.w3.org/2000/svg" xmlns:xlink="http://www.w3.org/1999/xlink" x="0px" y="0px"
	 viewBox="0 0 390 390" style="enable-background:new 0 0 390 390;" xml:space="preserve">
<g>
	<path d="M385,25h-44V0h-75v25h-36V0h-75v25h-35V0H45v25H5v260h155v105h70V285h155V25z M281,15h45v30h-45V15z M170,15h45v30h-45V15z
		 M60,15h45v30H60V15z M215,375h-40v-90h40V375z M370,270H230h-70H20V40h25v20h75V40h35v20h75V40h36v20h75V40h29V270z"/>
	<path d="M278,84.5c-35.187,0-64.588,25.201-71.131,58.5H160v15h45.525c0.061,4.44,0.516,8.785,1.344,13H160v15h51.572
		c11.211,25.579,36.76,43.5,66.428,43.5c39.977,0,72.5-32.523,72.5-72.5S317.977,84.5,278,84.5z M278,214.5
		c-21.133,0-39.628-11.468-49.62-28.5H260v-15h-37.768c-1.048-4.172-1.629-8.525-1.706-13H260v-15h-37.768
		C228.5,118.039,251.122,99.5,278,99.5c31.706,0,57.5,25.794,57.5,57.5S309.706,214.5,278,214.5z"/>
	<rect x="43" y="90" width="100" height="15"/>
	<rect x="74" y="204" width="100" height="15"/>
</g>
<g>
</g>
<g>
</g>
<g>
</g>
<g>
</g>
<g>
</g>
<g>
</g>
<g>
</g>
<g>
</g>
<g>
</g>
<g>
</g>
<g>
</g>
<g>
</g>
<g>
</g>
<g>
</g>
<g>
</g>
</svg>
