<?xml version="1.0" encoding="iso-8859-1"?>
<!-- Generator: Adobe Illustrator 19.1.0, SVG Export Plug-In . SVG Version: 6.00 Build 0)  -->
<svg version="1.1" id="Capa_1" xmlns="http://www.w3.org/2000/svg" xmlns:xlink="http://www.w3.org/1999/xlink" x="0px" y="0px"
	 viewBox="0 0 463 463" style="enable-background:new 0 0 463 463;" xml:space="preserve">
<g>
	<path d="M463,66.8v329.4c0,4.15-3.36,7.5-7.5,7.5H7.5c-4.15,0-7.5-3.35-7.5-7.5V66.8c0-4.14,3.35-7.5,7.5-7.5h448
		C459.64,59.3,463,62.66,463,66.8z M448,388.7V144.46H15V388.7H448z M448,129.46V74.3H15v55.16H448z"/>
	<path style="fill:#3DD0F2;" d="M448,74.3v55.16H15V74.3H448z M432.64,115.88v-28c0-4.14-3.36-7.5-7.5-7.5H106.16
		c-4.14,0-7.5,3.36-7.5,7.5v28c0,4.14,3.36,7.5,7.5,7.5h318.98C429.28,123.38,432.64,120.02,432.64,115.88z M88.33,101.88
		c0-1.98-0.8-3.91-2.2-5.31c-1.39-1.39-3.32-2.19-5.3-2.19c-1.97,0-3.91,0.8-5.31,2.19c-1.39,1.4-2.19,3.33-2.19,5.31
		c0,1.97,0.8,3.9,2.19,5.3c1.4,1.4,3.34,2.2,5.31,2.2c1.98,0,3.91-0.8,5.3-2.2C87.53,105.78,88.33,103.85,88.33,101.88z
		 M64.09,101.88c0-1.98-0.8-3.91-2.2-5.31c-1.39-1.39-3.33-2.19-5.3-2.19s-3.9,0.8-5.3,2.19c-1.4,1.4-2.2,3.33-2.2,5.31
		c0,1.97,0.8,3.91,2.2,5.3c1.4,1.4,3.33,2.2,5.3,2.2s3.91-0.8,5.3-2.2C63.29,105.78,64.09,103.85,64.09,101.88z M39.85,101.88
		c0-1.97-0.8-3.91-2.19-5.31c-1.4-1.39-3.33-2.19-5.31-2.19c-1.97,0-3.91,0.8-5.3,2.19c-1.4,1.4-2.2,3.33-2.2,5.31
		c0,1.97,0.8,3.91,2.2,5.3c1.4,1.4,3.33,2.2,5.3,2.2c1.98,0,3.91-0.8,5.31-2.2C39.05,105.78,39.85,103.85,39.85,101.88z"/>
	<path d="M432.64,87.88v28c0,4.14-3.36,7.5-7.5,7.5H106.16c-4.14,0-7.5-3.36-7.5-7.5v-28c0-4.14,3.36-7.5,7.5-7.5h318.98
		C429.28,80.38,432.64,83.74,432.64,87.88z M417.64,108.38v-13H113.66v13H417.64z"/>
	<path d="M411.09,284.42v71.34c0,4.14-3.36,7.5-7.5,7.5h-88c-4.14,0-7.5-3.36-7.5-7.5v-71.34c0-4.15,3.36-7.5,7.5-7.5h88
		C407.73,276.92,411.09,280.27,411.09,284.42z M396.09,348.26v-56.34h-73v56.34H396.09z"/>
	<path d="M403.59,169.9c4.14,0,7.5,3.36,7.5,7.5c0,4.15-3.36,7.5-7.5,7.5h-88c-4.14,0-7.5-3.35-7.5-7.5c0-4.14,3.36-7.5,7.5-7.5
		H403.59z"/>
	<path d="M403.59,205.57c4.14,0,7.5,3.36,7.5,7.5c0,4.15-3.36,7.5-7.5,7.5h-88c-4.14,0-7.5-3.35-7.5-7.5c0-4.14,3.36-7.5,7.5-7.5
		H403.59z"/>
	<path d="M403.59,241.25c4.14,0,7.5,3.35,7.5,7.5c0,4.14-3.36,7.5-7.5,7.5h-88c-4.14,0-7.5-3.36-7.5-7.5c0-4.15,3.36-7.5,7.5-7.5
		H403.59z"/>
	<rect x="323.09" y="291.92" style="fill:#F48C6C;" width="73" height="56.34"/>
	<path d="M282.99,177.4v71.35c0,4.14-3.35,7.5-7.5,7.5H187.5c-4.14,0-7.5-3.36-7.5-7.5V177.4c0-4.14,3.36-7.5,7.5-7.5h87.99
		C279.64,169.9,282.99,173.26,282.99,177.4z M267.99,241.25V184.9H195v56.35H267.99z"/>
	<path d="M275.49,276.92c4.15,0,7.5,3.35,7.5,7.5c0,4.14-3.35,7.5-7.5,7.5H187.5c-4.14,0-7.5-3.36-7.5-7.5c0-4.15,3.36-7.5,7.5-7.5
		H275.49z"/>
	<path d="M275.49,312.59c4.15,0,7.5,3.36,7.5,7.5c0,4.14-3.35,7.5-7.5,7.5H187.5c-4.14,0-7.5-3.36-7.5-7.5c0-4.14,3.36-7.5,7.5-7.5
		H275.49z"/>
	<path d="M275.49,348.26c4.15,0,7.5,3.36,7.5,7.5c0,4.14-3.35,7.5-7.5,7.5H187.5c-4.14,0-7.5-3.36-7.5-7.5c0-4.14,3.36-7.5,7.5-7.5
		H275.49z"/>
	<rect x="195" y="184.9" style="fill:#F48C6C;" width="72.99" height="56.35"/>
	<path d="M147.4,169.9c4.15,0,7.5,3.36,7.5,7.5c0,4.15-3.35,7.5-7.5,7.5H59.41c-4.14,0-7.5-3.35-7.5-7.5c0-4.14,3.36-7.5,7.5-7.5
		H147.4z"/>
	<path d="M147.4,205.57c4.15,0,7.5,3.36,7.5,7.5c0,4.15-3.35,7.5-7.5,7.5H59.41c-4.14,0-7.5-3.35-7.5-7.5c0-4.14,3.36-7.5,7.5-7.5
		H147.4z"/>
	<path d="M147.4,241.25c4.15,0,7.5,3.35,7.5,7.5c0,4.14-3.35,7.5-7.5,7.5H59.41c-4.14,0-7.5-3.36-7.5-7.5c0-4.15,3.36-7.5,7.5-7.5
		H147.4z"/>
	<path d="M147.4,276.92c4.15,0,7.5,3.35,7.5,7.5c0,4.14-3.35,7.5-7.5,7.5H59.41c-4.14,0-7.5-3.36-7.5-7.5c0-4.15,3.36-7.5,7.5-7.5
		H147.4z"/>
	<path d="M147.4,312.59c4.15,0,7.5,3.36,7.5,7.5c0,4.14-3.35,7.5-7.5,7.5H59.41c-4.14,0-7.5-3.36-7.5-7.5c0-4.14,3.36-7.5,7.5-7.5
		H147.4z"/>
	<path d="M147.4,348.26c4.15,0,7.5,3.36,7.5,7.5c0,4.14-3.35,7.5-7.5,7.5H59.41c-4.14,0-7.5-3.36-7.5-7.5c0-4.14,3.36-7.5,7.5-7.5
		H147.4z"/>
	<path d="M86.13,96.57c1.4,1.4,2.2,3.33,2.2,5.31c0,1.97-0.8,3.9-2.2,5.3c-1.39,1.4-3.32,2.2-5.3,2.2c-1.97,0-3.91-0.8-5.31-2.2
		c-1.39-1.4-2.19-3.33-2.19-5.3c0-1.98,0.8-3.91,2.19-5.31c1.4-1.39,3.34-2.19,5.31-2.19C82.81,94.38,84.74,95.18,86.13,96.57z"/>
	<path d="M61.89,96.57c1.4,1.4,2.2,3.33,2.2,5.31c0,1.97-0.8,3.9-2.2,5.3c-1.39,1.4-3.33,2.2-5.3,2.2s-3.9-0.8-5.3-2.2
		c-1.4-1.39-2.2-3.33-2.2-5.3c0-1.98,0.8-3.91,2.2-5.31c1.4-1.39,3.33-2.19,5.3-2.19S60.5,95.18,61.89,96.57z"/>
	<path d="M37.66,96.57c1.39,1.4,2.19,3.34,2.19,5.31c0,1.97-0.8,3.9-2.19,5.3c-1.4,1.4-3.33,2.2-5.31,2.2c-1.97,0-3.9-0.8-5.3-2.2
		c-1.4-1.39-2.2-3.33-2.2-5.3c0-1.98,0.8-3.91,2.2-5.31c1.39-1.39,3.33-2.19,5.3-2.19C34.33,94.38,36.26,95.18,37.66,96.57z"/>
</g>
<g>
</g>
<g>
</g>
<g>
</g>
<g>
</g>
<g>
</g>
<g>
</g>
<g>
</g>
<g>
</g>
<g>
</g>
<g>
</g>
<g>
</g>
<g>
</g>
<g>
</g>
<g>
</g>
<g>
</g>
</svg>
