<?xml version="1.0" encoding="iso-8859-1"?>
<!-- Generator: Adobe Illustrator 18.0.0, SVG Export Plug-In . SVG Version: 6.00 Build 0)  -->
<!DOCTYPE svg PUBLIC "-//W3C//DTD SVG 1.1//EN" "http://www.w3.org/Graphics/SVG/1.1/DTD/svg11.dtd">
<svg version="1.1" id="Capa_1" xmlns="http://www.w3.org/2000/svg" xmlns:xlink="http://www.w3.org/1999/xlink" x="0px" y="0px"
	 viewBox="0 0 297 297" style="enable-background:new 0 0 297 297;" xml:space="preserve">
<g>
	<path d="M143.459,113.756c1.555,0.907,3.294,1.36,5.034,1.36c1.74,0,3.479-0.453,5.035-1.36c5.959-3.474,58.213-34.89,58.213-68.07
		c0-20.293-16.431-36.803-36.627-36.803c-10.478,0-19.94,4.444-26.622,11.557c-6.682-7.112-16.146-11.557-26.624-11.557
		c-20.197,0-36.629,16.51-36.629,36.803C85.239,78.867,137.499,110.283,143.459,113.756z M121.868,28.881
		c9.168,0,16.626,7.538,16.626,16.805c0,5.522,4.478,9.999,9.999,9.999s9.999-4.477,9.999-9.999c0-9.267,7.456-16.805,16.622-16.805
		c9.169,0,16.629,7.538,16.629,16.805c0,15.032-24.739,35.901-43.25,47.712c-18.514-11.81-43.256-32.68-43.256-47.712
		C105.237,36.419,112.698,28.881,121.868,28.881z"/>
	<path d="M296.976,277.409c-0.286-21.471-13.615-39.828-32.371-47.457c8.007-5.94,13.207-15.462,13.207-26.177
		c0-17.966-14.609-32.581-32.567-32.581s-32.566,14.615-32.566,32.581c0,10.716,5.201,20.237,13.208,26.178
		c-7.648,3.111-14.389,8.006-19.715,14.171c-8.7-14.837-22.9-26.034-39.773-30.749c13.529-6.645,22.867-20.566,22.867-36.633
		c0-22.492-18.292-40.791-40.775-40.791s-40.775,18.299-40.775,40.791c0,16.066,9.338,29.988,22.866,36.633
		c-16.87,4.715-31.072,15.91-39.772,30.745c-5.325-6.163-12.064-11.058-19.712-14.168c8.006-5.94,13.206-15.462,13.206-26.177
		c0-17.966-14.609-32.581-32.566-32.581S19.17,185.809,19.17,203.775c0,10.716,5.201,20.237,13.208,26.178
		C13.416,237.666,0,256.343,0,278.118c0,5.521,4.477,9.999,9.999,9.999h276.982c0.007,0,0.015,0,0.02,0
		c5.523,0,9.999-4.478,9.999-9.999C297,277.879,296.992,277.643,296.976,277.409z M51.736,191.191
		c6.931,0,12.568,5.646,12.568,12.584c0,6.936-5.638,12.579-12.568,12.579s-12.568-5.644-12.568-12.579
		C39.168,196.837,44.806,191.191,51.736,191.191z M21.589,268.119c4.179-12.736,16.114-21.955,30.148-21.955
		s25.97,9.219,30.147,21.955H21.589z M127.713,176.742c0-11.466,9.32-20.793,20.777-20.793s20.777,9.327,20.777,20.793
		c0,11.464-9.32,20.79-20.777,20.79S127.713,188.206,127.713,176.742z M102.638,268.119c4.57-21.245,23.394-37.211,45.853-37.211
		s41.282,15.966,45.852,37.211H102.638z M245.244,191.191c6.931,0,12.569,5.646,12.569,12.584c0,6.936-5.639,12.579-12.569,12.579
		s-12.568-5.644-12.568-12.579C232.676,196.837,238.313,191.191,245.244,191.191z M215.097,268.119
		c4.178-12.736,16.114-21.955,30.148-21.955c14.033,0,25.969,9.219,30.148,21.955H215.097z"/>
</g>
<g>
</g>
<g>
</g>
<g>
</g>
<g>
</g>
<g>
</g>
<g>
</g>
<g>
</g>
<g>
</g>
<g>
</g>
<g>
</g>
<g>
</g>
<g>
</g>
<g>
</g>
<g>
</g>
<g>
</g>
</svg>
