<?xml version="1.0" encoding="iso-8859-1"?>
<!-- Generator: Adobe Illustrator 16.0.0, SVG Export Plug-In . SVG Version: 6.00 Build 0)  -->
<!DOCTYPE svg PUBLIC "-//W3C//DTD SVG 1.1//EN" "http://www.w3.org/Graphics/SVG/1.1/DTD/svg11.dtd">
<svg version="1.1" id="Capa_1" xmlns="http://www.w3.org/2000/svg" xmlns:xlink="http://www.w3.org/1999/xlink" x="0px" y="0px"
	 width="566.425px" height="566.425px" viewBox="0 0 566.425 566.425" style="enable-background:new 0 0 566.425 566.425;"
	 xml:space="preserve">
<g>
	<g>
		<path d="M236.125,441.141c-0.6-3.7-5.2-6.7-8.6-6.7c-44.4,1.5-87.8-2.101-131.6-7c-23.6-2.4-48-7-69.8,4.6
			c-31.5,16.8-13.2,81.7-10.4,107.4c0.3,2.1,1.5,3.7,2.8,4.6c-0.6,4.601,2.1,9.8,8.6,10.101c67.9,4.3,135.6-12.5,203.8-3.101
			c5.5,0.9,11.3-2.1,11.3-8.6C241.925,508.44,241.325,474.74,236.125,441.141z M27.125,536.24c0.9-19.6-0.6-39.2-0.9-58.8
			c-0.6-35.8,25.4-36.4,54.5-33c4.9,0.6,9.5,0.899,14.4,1.5c-3.1,6.7-3.7,15.6-4.3,22.3c-1.8,19.9,1.2,40.1,1.2,60.3
			c0,0.9,0,1.5,0.3,2.4C70.625,532.24,48.525,534.141,27.125,536.24z M145.525,528.04c0.3-0.899,0.6-1.5,0.6-2.8
			c0.3-24.5,2.8-49,2.8-73.4c0-0.3-0.3-0.6-0.3-0.899c11.3,0.899,22.6,1.8,34.3,2.1c28.2,1.2,37.9-0.3,40.1,32.4
			c1.2,15.3,1.2,30.899,0.9,46.5C198.525,528.641,172.225,527.74,145.525,528.04z"/>
		<path d="M563.824,416.94c-0.899-11.601-2.1-27.8-13.199-34.9c-15.9-10.1-39.5-9.8-57.2-11.6c-43.101-4.601-86.9-2.8-130.4-4.3
			c-4.899-0.301-9.8,4.6-9.5,9.5c1.2,19.899,2.8,39.5,4,59.399c0,1.8,0.601,3.101,1.5,4.3c-18.1,23.301,5.5,84.101,23,98.2
			c17.7,14.4,52,12.5,73.101,12.9c31.5,0.3,63-3.101,93.899-7.3c4.3-0.601,6.7-5.2,7-9.2
			C557.425,494.34,566.925,456.44,563.824,416.94z M371.725,441.141c1.5-1.2,2.4-3.4,2.4-6.101c0-16.5-1.2-32.7-1.5-49.3
			c23.899,1.2,47.699,1.2,71.3,1.8c15.3,45.601,0,97,6.399,144.4c-13.5-0.3-26.6-1.2-39.5-3.4
			C368.324,521.54,372.925,474.141,371.725,441.141z M532.625,526.141c-15.601,2.1-31.801,4-48,4.899c-2.101-45.3,8-93,1.5-137.7
			c-0.301-2.1-1.5-3.699-3.4-4.3c15.6,0.9,31.2,2.4,46.5,4.9C558.625,398.84,546.725,524.34,532.625,526.141z"/>
		<path d="M364.324,242.84c-85.999-2.399-173.199-18.1-257.699,5.2c-4,1.2-7.3,4.9-7,9.2c2.1,38.9,3.1,78.6,10.7,117.2
			c-4.9,0.3-10.1,0.6-13.2,3.399c-4,4-4.3,9.801-4.9,15c-0.3,2.4-0.6,4.9,0.3,7c0,0.301,0.3,0.601,0.6,1.2
			c-4.9,1.5-4.6,10.101,0.6,11.601c12.2,4,25.7,2.8,38.2,3.399c4.9,0.3,8.9-4.3,9.2-9.2c0-7.699,0-15,0-22.6c0-4-2.8-7.7-6.7-8.9
			c-3.1-0.899-6.4-1.199-9.5-1.5c-2.4-30-3.4-59.699-4.6-90c-1.5-38.899,71.6-31.5,106.5-29.7c-0.3,0.9-0.6,1.801-0.9,2.801
			c-2.4,22-3.1,44.1-8,65.8c-1.2,4.9,2.1,9.2,7.3,9.5c7.3,0.3,15,0.3,22-0.9c0.3,44.4,7.3,90.601,16.2,129.7
			c0.6,3.101,4.3,3.7,6.4,1.8c0.3,0.301,0.6,0.601,0.9,0.9c-3.1,0.3-6.1,0.6-9.2,0.9c-8.3,0.899-8.3,12.199,0,12.899
			c23.299,2.101,47.1,0,70.7,0c11.6,0,11.6-18.399,0-18.399c-15.6,0.3-31.2,1.5-47.1,3.1c0.3-0.9,0.6-1.5,0.899-2.4
			c2.4,3.101,8.3,2.101,8.601-2.8c3.1-66.399,6.399-134.3-4.601-199.8c21.7,1.5,43.101,3.1,64.9,4c12.5,0.6,31.2-3.101,39.5,9.5
			c6.7,9.8,9.2,22.3,9.8,35.2c-4.6-2.8-9.8-4.601-14.7-6.4c-10.399-4.6-21.399-9.2-32.399-11.6c-3.4-0.9-8.301,0.3-9.801,4
			c-7.3,16.2-7,35.2-0.899,52c1.2,3.399,4.3,7,8.6,6.399c19-2.1,37.601,2.101,56.601,2.4c3.699,0,7.6-2.8,8.3-6.4
			c2.399-1.5,4-4,4-7.6C423.725,289.641,420.625,244.34,364.324,242.84z"/>
		<path d="M76.425,368.84c-20.5-9.8-42.2-17.1-64-23.6c-4-1.2-9.5,1.2-10.1,5.8c-3.1,20.2-3.1,40.7,0,60.9
			c0.6,4.899,6.1,6.399,10.1,5.8c20.2-2.8,41-3.1,61.2-6.4c2.8-0.3,3.7-3.399,3.4-5.5c0-0.3,0-0.3,0.3-0.3c0.9-4.3,1.2-8.6,1.5-12.5
			c0.3-4.6,1.5-9.2,0.9-13.8C81.025,375.34,80.425,370.74,76.425,368.84z"/>
		<path d="M234.025,334.04c-13.8,5.5-27.2,12.2-40.4,19.3c-10.1,5.5-27.8,11.601-33.4,22c-0.3,0.301-0.3,0.601-0.3,0.9
			c-1.8,0-4,0.9-4.9,3.7c-3.4,10.7-1.5,21.399-2.4,32.399c-0.3,3.7,3.7,7.601,7.3,7.301c24.5-2.101,49-2.4,73.4-2.4
			c4.6,0,7.3-3.7,8-8c2.8-22.6,3.1-45,3.1-67.6C244.125,337.04,238.925,332.141,234.025,334.04z"/>
		<path d="M475.425,308.641c-1.2-3.7-4.3-6.101-8-6.101c-10.7,0-22.3-0.3-32.4,4c-2.399,1.2-4,4.601-4,7c0,7.7,0,15,0,22.601
			c0,3.699,3.101,6.699,6.4,7.6c-0.3,1.8,0.3,4,2.1,4.9c9.5,4.6,20.5,3.699,30.601,4.3c3.699,0.3,7-2.8,8-6.101
			C481.824,334.94,479.425,320.24,475.425,308.641z"/>
		<path d="M566.324,293.94c0-5.2-5.5-9.801-10.699-8c-17.7,6.1-35.2,13.5-53.5,17.1c-2.801,0.601-4.301,1.8-5.2,3.7
			c-0.9,0.3-1.5,0.9-2.101,1.8c-5.8,10.101-2.1,23-4,34c-0.6,4,0.9,9.2,5.5,10.101c20.2,3.1,41,3.399,61.5,3.399
			c4.601,0,8.601-4,8.601-8.6C566.324,329.74,566.324,311.641,566.324,293.94z"/>
		<path d="M283.825,177.04c-11.3-9.8-27.8-9.5-41.6-6.7c-2.8,0.601-4.9,3.101-5.8,5.8c-3.4,10.7-5.8,21.7-2.8,32.7
			c0.6,2.8,3.1,4.9,5.8,5.8c0,0.9,0,1.801,0.6,3.101c3.1,5.8,10.7,6.1,16.5,6.399c9.8,0.9,19.6,0,29.4-1.199
			c2.8-0.301,4.899-3.101,5.5-5.5C295.524,203.04,295.524,187.14,283.825,177.04z"/>
		<path d="M396.524,138.44c0-5.801-7-10.101-11.899-6.7c-25.7,17.1-103.1,39.5-78.601,82c-0.6,3.7,1.5,7.7,6.4,8
			c24.5,0.6,49,1.8,73.399,0.899c8-0.3,9.5-9.5,4.9-13.8C391.625,185.54,395.824,162.34,396.524,138.44z"/>
		<path d="M214.425,184.94c1.5-3.101,1.8-6.7-0.9-9.801c-23.3-26.3-48.3-56.6-80.2-72.5c-4.9-2.399-11.9-0.6-13.2,5.2
			c-7,36.4,0.9,74.101-8.6,110.2c-1.5,5.2,2.8,12.2,8.9,11.6c30-3.1,60.3-4.899,90.3-6.399c4.3-0.3,8.9-3.7,8.6-8.601
			C218.425,204.54,216.525,194.74,214.425,184.94z"/>
		<path d="M529.925,110.34c-0.3-4.899-3.7-8.6-8.9-8.899c-82-3.101-163.7-7.601-244.799,6.699c-3.4,0.601-6.1,4.601-5.8,7.7
			c0.9,12.2,2.1,23.2,6.1,35.2c1.8,5.2,10.4,4.6,9.799-1.2c-2.1-28.2,10.101-28.8,37-31.2c20.2-1.8,40.7-2.399,61.2-3.1
			c10.4-0.3,20.8-0.3,31.2,0c-6.1,41.3-19.3,178.101,48,165.5c4-0.6,5.8-5.2,4.9-8.9c-12.5-51.1-8.9-104.3-22.301-155.399
			c0-0.3-0.3-0.3-0.3-0.601c22.3,0.601,44.7,1.801,66.7,2.801c3.7,46.8,0.9,93.899,9.5,140.5c1.5,8.3,15.3,6.399,14.4-1.801
			C531.425,208.24,534.524,159.24,529.925,110.34z"/>
		<path d="M415.725,41.14c-8-0.899-16.2,3.101-20.8,9.5c-6.101,8-5.2,19-2.8,28.2c0.899,3.7,4.3,5.8,8,5.8
			c0.3,0.301,0.6,0.601,0.899,0.9c5.2,2.8,10.7,2.8,16.5,2.1c3.4-0.3,6.4-0.899,9.8-1.199c0.301,0,4.9,0.899,6.7,0.899
			c3.4,0,6.7-2.399,7.7-5.8C445.425,62.24,435.925,43.94,415.725,41.14z"/>
		<path d="M524.125,20.04c-0.9-8-8.601-11-14.7-6.1c-10.4,8-22,14.399-33.4,21.399c-6.399,4-18.399,9.5-18.1,18.4
			c-1.8-0.9-4.9,0.6-5.2,3.1c-1.2,8.9,2.1,16.8,1.5,25.4c-0.3,3.1,2.4,6.7,5.5,7.3c20.2,3.7,40.7,3.7,61.2,4c4.3,0,9.2-4,8.6-8.6
			C527.125,63.54,526.524,41.74,524.125,20.04z"/>
		<path d="M376.324,42.04c1.2-4,0-8.9-5.199-10.1c-24.2-6.4-47.4-16.5-72.801-17.4c-4.6-0.3-8.3,4-8.3,8.3
			c-0.6,19.3-2.399,46.5,16.5,58.4c18.101,11,48.3,3.7,67.9,3.399c4.3,0,8.3-3.699,8.3-8.3
			C382.425,65.04,380.225,52.74,376.324,42.04z"/>
	</g>
</g>
<g>
</g>
<g>
</g>
<g>
</g>
<g>
</g>
<g>
</g>
<g>
</g>
<g>
</g>
<g>
</g>
<g>
</g>
<g>
</g>
<g>
</g>
<g>
</g>
<g>
</g>
<g>
</g>
<g>
</g>
</svg>
