<?xml version="1.0" encoding="iso-8859-1"?>
<!-- Generator: Adobe Illustrator 16.0.0, SVG Export Plug-In . SVG Version: 6.00 Build 0)  -->
<!DOCTYPE svg PUBLIC "-//W3C//DTD SVG 1.1//EN" "http://www.w3.org/Graphics/SVG/1.1/DTD/svg11.dtd">
<svg version="1.1" id="Capa_1" xmlns="http://www.w3.org/2000/svg" xmlns:xlink="http://www.w3.org/1999/xlink" x="0px" y="0px"
	 width="417.131px" height="417.13px" viewBox="0 0 417.131 417.13" style="enable-background:new 0 0 417.131 417.13;"
	 xml:space="preserve">
<g>
	<path d="M398.829,146.543h-2.651L248.566,18.055V62.6l35.841,31.171c7.125-2.381,15.814,0.101,20.479,6.282
		c3.18,4.219,4.277,9.486,3.347,14.446l52.309,45.499l-26.062,20.373l-125.913,92.336L82.653,180.371L57.298,161.32l51.932-45.521
		c-0.408-1.53-0.679-3.105-0.679-4.7c0-3.998,1.267-7.8,3.648-10.996c4.896-6.498,13.964-9.026,21.455-6.049l0.266,0.106
		l34.638-30.358V18.98L22.009,146.543h-3.703c-2.332,0-4.226,1.894-4.226,4.23v262.132c0,2.342,1.894,4.225,4.226,4.225h380.523
		c2.329,0,4.222-1.883,4.222-4.225V150.773C403.051,148.437,401.158,146.543,398.829,146.543z M369.23,383.315H47.903V196.833
		l158.166,115.992c1.492,1.093,3.507,1.093,5.003,0l158.164-115.992v186.482H369.23z M128.479,108.184l54.083,21.354V4.331
		c0-2.397,1.94-4.331,4.331-4.331h43.339c2.384,0,4.314,1.94,4.314,4.331v125.2l54.097-21.352c1.806-0.723,3.875-0.142,5.046,1.412
		c1.173,1.552,1.173,3.71-0.022,5.256L212.002,221.09c-0.82,1.062-2.091,1.686-3.437,1.686s-2.615-0.624-3.434-1.686
		l-81.675-106.244c-0.598-0.78-0.896-1.722-0.896-2.641c0-0.919,0.287-1.839,0.864-2.616
		C124.596,108.037,126.661,107.462,128.479,108.184z"/>
</g>
<g>
</g>
<g>
</g>
<g>
</g>
<g>
</g>
<g>
</g>
<g>
</g>
<g>
</g>
<g>
</g>
<g>
</g>
<g>
</g>
<g>
</g>
<g>
</g>
<g>
</g>
<g>
</g>
<g>
</g>
</svg>
