<?xml version="1.0" encoding="iso-8859-1"?>
<!-- Generator: Adobe Illustrator 17.1.0, SVG Export Plug-In . SVG Version: 6.00 Build 0)  -->
<!DOCTYPE svg PUBLIC "-//W3C//DTD SVG 1.1//EN" "http://www.w3.org/Graphics/SVG/1.1/DTD/svg11.dtd">
<svg version="1.1" id="Capa_1" xmlns="http://www.w3.org/2000/svg" xmlns:xlink="http://www.w3.org/1999/xlink" x="0px" y="0px"
	 viewBox="0 0 487.886 487.886" style="enable-background:new 0 0 487.886 487.886;" xml:space="preserve">
<path d="M446.332,88.158c0-1.514-0.673-2.87-1.735-3.787L361.949,1.47c-0.001-0.001-0.002-0.002-0.003-0.003
	c-0.007-0.007-0.015-0.012-0.022-0.019c-0.202-0.2-0.421-0.375-0.649-0.535c-0.074-0.052-0.151-0.096-0.228-0.144
	c-0.176-0.11-0.356-0.208-0.542-0.294c-0.089-0.041-0.176-0.082-0.267-0.118c-0.236-0.093-0.477-0.168-0.724-0.225
	c-0.04-0.009-0.077-0.024-0.117-0.032c-0.291-0.059-0.588-0.083-0.887-0.089C358.475,0.01,358.443,0,358.408,0h-270.3
	c-2.761,0-5,2.239-5,5v244.325H46.554c-2.761,0-5,2.239-5,5v124.675c0,2.761,2.239,5,5,5h36.554v98.885c0,2.761,2.239,5,5,5h353.204
	c2.761,0,5-2.239,5-5V88.357C446.315,88.289,446.332,88.226,446.332,88.158z M363.408,17.097l65.859,66.061h-65.859V17.097z
	 M51.554,259.325H259.71v114.675H51.554V259.325z M93.108,477.886v-93.885H264.71c2.761,0,5-2.239,5-5V254.325c0-2.761-2.239-5-5-5
	H93.108V10h260.3v78.158c0,2.761,2.239,5,5,5h77.904v384.728H93.108z M105.22,274.986H86.821c-2.761,0-5,2.239-5,5v73.353
	c0,2.761,2.239,5,5,5s5-2.239,5-5v-31.863l13.265,0.076c0.046,0,0.091,0,0.138,0c6.192,0,12.017-2.402,16.412-6.772
	c4.428-4.403,6.867-10.266,6.867-16.511C128.502,285.43,118.057,274.986,105.22,274.986z M114.585,307.688
	c-2.526,2.512-5.887,3.87-9.441,3.863l-13.322-0.076v-26.489h13.398c7.324,0,13.283,5.958,13.283,13.283
	C118.502,301.831,117.111,305.177,114.585,307.688z M141.843,274.975c-2.761,0-5,2.239-5,5v73.363c0,2.761,2.239,5,5,5
	c22.983,0,41.681-18.699,41.681-41.683C183.523,293.673,164.826,274.975,141.843,274.975z M146.843,347.945v-62.575
	c15.102,2.404,26.681,15.519,26.681,31.288C173.523,332.426,161.945,345.54,146.843,347.945z M238.545,279.986c0,2.761-2.239,5-5,5
	h-31.681v26.682h22.511c2.761,0,5,2.239,5,5s-2.239,5-5,5h-22.511v31.671c0,2.761-2.239,5-5,5s-5-2.239-5-5v-73.353
	c0-2.761,2.239-5,5-5h36.681C236.306,274.986,238.545,277.225,238.545,279.986z M394.37,129.663c0,2.761-2.239,5-5,5h-192
	c-2.761,0-5-2.239-5-5s2.239-5,5-5h192C392.131,124.663,394.37,126.901,394.37,129.663z M135.049,129.663c0-2.761,2.239-5,5-5
	h20.777c2.761,0,5,2.239,5,5s-2.239,5-5,5h-20.777C137.288,134.663,135.049,132.424,135.049,129.663z M394.37,160.835
	c0,2.761-2.239,5-5,5H140.049c-2.761,0-5-2.239-5-5s2.239-5,5-5H389.37C392.131,155.835,394.37,158.073,394.37,160.835z
	 M394.37,191.994c0,2.761-2.239,5-5,5H140.049c-2.761,0-5-2.239-5-5s2.239-5,5-5H389.37
	C392.131,186.994,394.37,189.233,394.37,191.994z M394.37,223.166c0,2.761-2.239,5-5,5H140.049c-2.761,0-5-2.239-5-5s2.239-5,5-5
	H389.37C392.131,218.166,394.37,220.405,394.37,223.166z M394.37,254.338c0,2.761-2.239,5-5,5h-88.874c-2.761,0-5-2.239-5-5
	s2.239-5,5-5h88.874C392.131,249.338,394.37,251.576,394.37,254.338z M394.37,285.522c0,2.761-2.239,5-5,5h-88.874
	c-2.761,0-5-2.239-5-5s2.239-5,5-5h88.874C392.131,280.522,394.37,282.761,394.37,285.522z M394.37,316.707c0,2.761-2.239,5-5,5
	h-88.874c-2.761,0-5-2.239-5-5s2.239-5,5-5h88.874C392.131,311.707,394.37,313.946,394.37,316.707z M394.37,347.891
	c0,2.761-2.239,5-5,5h-88.874c-2.761,0-5-2.239-5-5s2.239-5,5-5h88.874C392.131,342.891,394.37,345.13,394.37,347.891z
	 M394.37,379.075c0,2.761-2.239,5-5,5h-88.874c-2.761,0-5-2.239-5-5s2.239-5,5-5h88.874
	C392.131,374.075,394.37,376.314,394.37,379.075z"/>
<g>
</g>
<g>
</g>
<g>
</g>
<g>
</g>
<g>
</g>
<g>
</g>
<g>
</g>
<g>
</g>
<g>
</g>
<g>
</g>
<g>
</g>
<g>
</g>
<g>
</g>
<g>
</g>
<g>
</g>
</svg>
