<?xml version="1.0" encoding="iso-8859-1"?>
<!-- Generator: Adobe Illustrator 19.0.0, SVG Export Plug-In . SVG Version: 6.00 Build 0)  -->
<svg version="1.1" id="Capa_1" xmlns="http://www.w3.org/2000/svg" xmlns:xlink="http://www.w3.org/1999/xlink" x="0px" y="0px"
	 viewBox="0 0 470 470" style="enable-background:new 0 0 470 470;" xml:space="preserve">
<g>
	<circle cx="386.8" cy="286.5" r="7.5"/>
	<circle cx="356.8" cy="316.5" r="7.5"/>
	<path d="M462.5,30H450V7.5c0-4.142-3.357-7.5-7.5-7.5S435,3.358,435,7.5V30H35V7.5C35,3.358,31.643,0,27.5,0S20,3.358,20,7.5V30
		H7.5C3.357,30,0,33.358,0,37.5v50C0,91.642,3.357,95,7.5,95h455c4.143,0,7.5-3.358,7.5-7.5v-50C470,33.358,466.643,30,462.5,30z
		 M455,80H15V45h440V80z"/>
	<path d="M462.5,361.5H450v-244c0-4.142-3.357-7.5-7.5-7.5s-7.5,3.358-7.5,7.5v244H35v-244c0-4.142-3.357-7.5-7.5-7.5
		s-7.5,3.358-7.5,7.5v244H7.5c-4.143,0-7.5,3.358-7.5,7.5s3.357,7.5,7.5,7.5h220v39.548c-11.528,3.274-20,13.889-20,26.452
		c0,15.164,12.337,27.5,27.5,27.5s27.5-12.336,27.5-27.5c0-12.563-8.472-23.178-20-26.452V376.5h220c4.143,0,7.5-3.358,7.5-7.5
		S466.643,361.5,462.5,361.5z M247.5,442.5c0,6.893-5.607,12.5-12.5,12.5s-12.5-5.607-12.5-12.5S228.107,430,235,430
		S247.5,435.607,247.5,442.5z"/>
</g>
<g>
</g>
<g>
</g>
<g>
</g>
<g>
</g>
<g>
</g>
<g>
</g>
<g>
</g>
<g>
</g>
<g>
</g>
<g>
</g>
<g>
</g>
<g>
</g>
<g>
</g>
<g>
</g>
<g>
</g>
</svg>
