<?xml version="1.0" encoding="iso-8859-1"?>
<!-- Generator: Adobe Illustrator 16.0.0, SVG Export Plug-In . SVG Version: 6.00 Build 0)  -->
<!DOCTYPE svg PUBLIC "-//W3C//DTD SVG 1.1//EN" "http://www.w3.org/Graphics/SVG/1.1/DTD/svg11.dtd">
<svg version="1.1" id="Capa_1" xmlns="http://www.w3.org/2000/svg" xmlns:xlink="http://www.w3.org/1999/xlink" x="0px" y="0px"
	 width="54.938px" height="54.937px" viewBox="0 0 54.938 54.937" style="enable-background:new 0 0 54.938 54.937;"
	 xml:space="preserve">
<g>
	<g>
		<path d="M9.258,24.475c0,0.473,0.172,0.798,0.655,0.798s0.656-0.326,0.656-0.798v-5.156c0-0.49-0.224-0.617-0.5-0.617
			c-0.732,0-0.465,1.035-1.423,1.253l-0.319,0.072c-0.448,0.091-0.621,0.182-0.621,0.518c0,0.373,0.155,0.481,0.44,0.481h1.113
			L9.258,24.475L9.258,24.475z"/>
		<path d="M13.933,25.273c1.82,0,2.302-1.761,2.302-3.367c0-2.142-0.905-3.205-2.302-3.205s-2.303,1.063-2.303,3.205
			C11.63,23.512,12.113,25.273,13.933,25.273z M13.933,19.791c0.759,0,1.044,0.835,1.044,2.196c0,1.625-0.38,2.196-1.044,2.196
			c-0.665,0-1.044-0.571-1.044-2.196C12.889,20.626,13.174,19.791,13.933,19.791z"/>
		<path d="M19.212,25.273c1.82,0,2.303-1.761,2.303-3.367c0-2.142-0.905-3.205-2.303-3.205c-1.397,0-2.303,1.063-2.303,3.205
			C16.909,23.512,17.392,25.273,19.212,25.273z M19.212,19.791c0.759,0,1.043,0.835,1.043,2.196c0,1.625-0.379,2.196-1.043,2.196
			s-1.043-0.571-1.043-2.196C18.168,20.626,18.453,19.791,19.212,19.791z"/>
		<path d="M26.897,23.54c0,0.979,0.405,1.733,1.448,1.733c1.043,0,1.449-0.753,1.449-1.733s-0.406-1.734-1.449-1.734
			C27.302,21.806,26.897,22.56,26.897,23.54z M28.346,22.514c0.396,0,0.518,0.481,0.518,1.026c0,0.581-0.121,1.026-0.518,1.026
			s-0.518-0.445-0.518-1.026C27.828,22.995,27.949,22.514,28.346,22.514z"/>
		<path d="M24.232,25.201c0,0.154,0.146,0.309,0.336,0.309c0.172,0,0.276-0.137,0.336-0.254l3.104-6.172
			c0.062-0.118,0.096-0.218,0.096-0.308c0-0.154-0.146-0.309-0.336-0.309c-0.172,0-0.276,0.136-0.335,0.254l-3.105,6.172
			C24.267,25.01,24.232,25.11,24.232,25.201z"/>
		<path d="M23.982,22.169c1.043,0,1.449-0.753,1.449-1.734s-0.406-1.734-1.449-1.734s-1.449,0.753-1.449,1.734
			S22.939,22.169,23.982,22.169z M23.982,19.41c0.396,0,0.517,0.481,0.517,1.026c0,0.581-0.121,1.025-0.517,1.025
			c-0.397,0-0.518-0.445-0.518-1.025C23.465,19.891,23.585,19.41,23.982,19.41z"/>
		<path d="M18.75,40.737c5.589,0,10.602-2.471,14.039-6.362l2.682,2.198c-0.262,0.927,0.025,1.961,0.817,2.611l14.563,11.948
			c0.466,0.383,1.027,0.567,1.584,0.567c0.724,0,1.441-0.312,1.935-0.915c0.876-1.066,0.722-2.643-0.347-3.518L39.459,35.319
			c-0.791-0.649-1.863-0.729-2.722-0.292l-2.702-2.217c2.174-3.061,3.465-6.791,3.465-10.822c0-10.339-8.41-18.75-18.75-18.75
			C8.411,3.238,0,11.649,0,21.988C0,32.328,8.411,40.737,18.75,40.737z M18.75,5.237c9.236,0,16.75,7.514,16.75,16.75
			c0,9.236-7.514,16.75-16.75,16.75C9.514,38.737,2,31.223,2,21.987C2,12.751,9.514,5.237,18.75,5.237z"/>
		<path d="M18.75,37.85c8.747,0,15.862-7.116,15.862-15.862S27.496,6.126,18.75,6.126c-8.746,0-15.862,7.116-15.862,15.862
			S10.004,37.85,18.75,37.85z M18.75,8.125c7.644,0,13.862,6.219,13.862,13.862c0,7.644-6.219,13.862-13.862,13.862
			c-7.643,0-13.862-6.219-13.862-13.862C4.888,14.344,11.107,8.125,18.75,8.125z"/>
	</g>
</g>
<g>
</g>
<g>
</g>
<g>
</g>
<g>
</g>
<g>
</g>
<g>
</g>
<g>
</g>
<g>
</g>
<g>
</g>
<g>
</g>
<g>
</g>
<g>
</g>
<g>
</g>
<g>
</g>
<g>
</g>
</svg>
