<?xml version="1.0" encoding="iso-8859-1"?>
<!-- Generator: Adobe Illustrator 18.1.1, SVG Export Plug-In . SVG Version: 6.00 Build 0)  -->
<svg version="1.1" id="Capa_1" xmlns="http://www.w3.org/2000/svg" xmlns:xlink="http://www.w3.org/1999/xlink" x="0px" y="0px"
	 viewBox="0 0 53.624 53.624" style="enable-background:new 0 0 53.624 53.624;" xml:space="preserve">
<g>
	<g>
		<g>
			<path style="fill:rgb(0,0,0);" d="M43.296,38.625c-0.568-0.452-1.137-0.903-1.705-1.355c-1.979-1.57-3.958-3.142-5.938-4.713
				c-0.41-0.326-1.018-0.436-1.414,0c-2.509,2.756-5.017,5.512-7.522,8.268c-2.494-2.75-4.988-5.5-7.482-8.25
				c-0.388-0.428-1.015-0.338-1.414,0c-2.366,2-4.732,4.002-7.098,6.005c-0.338,0.284-0.85,0.594-0.975,1.048
				c-0.094,0.34-0.036,0.762-0.036,1.105c0,1.737,0,3.476,0,5.213c0,2.227,0,4.451,0,6.678c0,0.545,0.455,1,1,1
				c5.646,0,11.291,0,16.937,0c5.104,0,10.209,0,15.313,0c0.275,0,0.48-0.104,0.64-0.247c0.021-0.017,0.041-0.028,0.062-0.046
				c0.021-0.024,0.039-0.053,0.06-0.079c0.138-0.157,0.237-0.356,0.237-0.627c0-3.06,0-6.116,0-9.175c0-1.256,0-2.51,0-3.767
				C43.96,39.137,43.662,38.915,43.296,38.625z M28.77,41.533c2.056-2.256,4.108-4.514,6.164-6.771
				c-0.106-0.304-0.217-0.607-0.349-0.896c0.133,0.289,0.242,0.593,0.35,0.896c0.436,1.229,0.705,2.554,0.982,3.796
				c0.184,0.813,0.358,1.637,0.451,2.465c0.006,0.051,0.008,0.103,0.013,0.152c-0.032-0.014-0.063-0.027-0.097-0.041
				c-1.722-0.725-3.931-0.328-5.694,0.002C29.984,41.248,29.374,41.383,28.77,41.533c-0.141,0.035-0.279,0.083-0.42,0.123
				C28.491,41.616,28.628,41.568,28.77,41.533z M24.686,41.557c0.43,0.114,0.852,0.251,1.274,0.387
				c0.104,0.033,0.209,0.062,0.312,0.097c0.083-0.086,0.165-0.173,0.247-0.259c-0.083,0.088-0.165,0.174-0.247,0.26
				c-0.103-0.034-0.208-0.062-0.312-0.096C25.537,41.809,25.115,41.673,24.686,41.557c-0.571-0.148-1.147-0.283-1.724-0.402
				c-1.795-0.366-3.957-0.719-5.706,0.014c-0.004,0.002-0.007,0.004-0.011,0.006c0.004-0.051,0.006-0.102,0.011-0.15
				c0.084-0.828,0.271-1.651,0.451-2.465c0.265-1.197,0.525-2.476,0.933-3.666v-0.001C20.657,37.113,22.671,39.335,24.686,41.557z
				 M41.958,51.625c-4.895,0-9.79,0-14.686,0v-0.001c0.373-1.612,1.119-5.042,1.523-6.906c0.019-0.085-0.059-0.226-0.154-0.19
				c-0.674,0.252-2.023,0.734-2.023,0.734s-1.499-0.59-1.923-0.75c-0.035-0.033-0.083-0.038-0.129-0.015
				c-0.014,0.006-0.053,0.046-0.06,0.061c-0.004,0.013-0.005,0.021-0.007,0.034c-0.003,0.016-0.012,0.027-0.009,0.045
				c0.37,1.869,1.056,5.355,1.398,6.986c0.086,0.409,0.15,0.701,0.183,0.821c-0.032-0.12-0.097-0.411-0.183-0.82
				c-4.726,0-9.452,0-14.177,0c0-3.757,0-7.515,0-11.271c1.9-1.607,3.799-3.216,5.699-4.824c0.21-0.744,0.451-1.479,0.766-2.168
				c0.233-0.513,0.923-0.188,0.913,0.292c0.008-0.479-0.68-0.803-0.913-0.29c-0.315,0.689-0.556,1.425-0.766,2.168
				c-0.271,0.961-0.486,1.94-0.697,2.893c-0.19,0.857-0.36,1.723-0.458,2.598c-0.055,0.495-0.128,1.186,0.443,1.397
				c0.3,0.112,0.6-0.169,0.843-0.292c0.414-0.209,0.912-0.284,1.368-0.327c1.075-0.101,2.172,0.03,3.23,0.213
				c1.303,0.226,2.602,0.563,3.857,0.99c0.095,0.032,0.195,0.056,0.29,0.089c0.116,0.04,0.244,0.006,0.356-0.054
				c0.045-0.023,0.096-0.04,0.129-0.075c0.154-0.161,0.308-0.323,0.462-0.484c0.159-0.166,0.168-0.361,0.099-0.523
				c-0.126-0.297-0.517-0.483-0.804-0.184c0.287-0.302,0.678-0.113,0.804,0.183c0,0,0,0,0.001,0c0.069,0.164,0.06,0.358-0.099,0.524
				c-0.154,0.161-0.308,0.323-0.462,0.484c-0.033,0.035-0.084,0.052-0.129,0.075c0.126,0.058,0.256,0.094,0.381,0.05
				c0.154-0.055,0.311-0.102,0.466-0.148c0.842-0.261,1.695-0.481,2.555-0.674c1.156-0.257,2.328-0.445,3.513-0.488
				c0.97-0.037,2.058,0.008,2.892,0.563c0.635,0.423,0.957-0.372,0.95-0.868c-0.01-0.848-0.211-1.713-0.381-2.54
				c-0.229-1.109-0.474-2.263-0.795-3.383c1.912,1.518,3.823,3.035,5.733,4.554C41.958,43.944,41.958,47.785,41.958,51.625z"/>
		</g>
		<path style="fill:rgb(0,0,0);" d="M20.417,22.254c0.357,0.329,0.892,0.59,1.202,0.922c0.013,0.024,0.082,0.118,0.087,0.126
			c0.05,0.084,0.066,0.135,0.097,0.229c0.122,0.372,0.048,0.754-0.054,1.12c-0.259,0.934,1.188,1.33,1.446,0.399
			c0.272-0.981,0.245-2.232-0.555-2.983c-0.261-0.245-0.607-0.412-0.887-0.637c-0.283-0.228-0.543-0.484-0.793-0.747
			c-0.545-0.573-0.964-1.247-1.306-1.957c-1.273-2.639-0.683-5.907,1.232-8.065c1.88-2.118,4.841-2.931,7.556-2.204
			c2.687,0.719,4.689,2.981,5.289,5.66c0.493,2.202-0.153,4.588-1.589,6.307c-0.34,0.407-0.73,0.768-1.143,1.102
			c-0.364,0.296-0.893,0.471-1.207,0.812c-0.683,0.734-0.855,1.774-0.56,2.714c0.289,0.915,1.737,0.523,1.444-0.402
			c-0.148-0.475-0.051-1.001,0.172-1.255c0.09-0.104,0.471-0.268,0.631-0.378c0.346-0.234,0.67-0.5,0.98-0.776
			c1.121-0.992,1.926-2.298,2.434-3.695c1.002-2.756,0.438-5.972-1.314-8.293c-1.729-2.292-4.457-3.599-7.321-3.569
			c-2.871,0.03-5.501,1.534-7.165,3.833c-1.672,2.31-2.025,5.437-1.093,8.105C18.486,20.013,19.337,21.259,20.417,22.254z"/>
		<path style="fill:rgb(0,0,0);" d="M29.578,26.237c-2.369,0-4.736,0-7.105,0c-0.645,0-0.645,1,0,1c2.369,0,4.738,0,7.105,0
			C30.223,27.237,30.223,26.237,29.578,26.237z"/>
		<path style="fill:rgb(0,0,0);" d="M29.578,27.747c-2.369,0-4.736,0-7.105,0c-0.645,0-0.645,1,0,1c2.369,0,4.738,0,7.105,0
			C30.223,28.747,30.223,27.747,29.578,27.747z"/>
		<path style="fill:rgb(0,0,0);" d="M29.578,29.747c-2.369,0-4.736,0-7.105,0c-0.645,0-0.645,1,0,1c2.369,0,4.738,0,7.105,0
			C30.223,30.747,30.223,29.747,29.578,29.747z"/>
		<path style="fill:rgb(0,0,0);" d="M27.678,23.78c0.481-2.93,0.962-5.86,1.442-8.79c0.028-0.176-0.108-0.371-0.309-0.308
			c-0.396,0.127-0.715,0.183-1.102-0.003c-0.255-0.124-0.518-0.114-0.734,0.063c-0.253,0.205-0.521,0.33-0.837,0.145
			c-0.163-0.095-0.307-0.172-0.488-0.223c-0.122-0.035-0.261,0.016-0.373,0.057c-0.389,0.141-0.654,0.099-1.035-0.038
			c-0.141-0.051-0.336,0.085-0.316,0.241c0.369,2.93,0.739,5.86,1.108,8.79c0.04,0.315,0.54,0.319,0.5,0
			c-0.354-2.81-0.709-5.619-1.062-8.429c0.288,0.084,0.538,0.104,0.864-0.044c0.408-0.185,0.558,0.186,0.894,0.251
			c0.204,0.039,0.359,0.029,0.556-0.038c0.17-0.058,0.32-0.177,0.458-0.289c0.219-0.178,0.399,0.088,0.62,0.153
			c0.229,0.067,0.469,0.026,0.705-0.039c-0.459,2.79-0.917,5.578-1.375,8.368C27.144,23.962,27.626,24.097,27.678,23.78z"/>
		<path style="fill:rgb(0,0,0);" d="M45.933,15.506c-2.417,0-4.833,0-7.25,0c-0.645,0-0.645,1,0,1c2.417,0,4.833,0,7.25,0
			C46.578,16.506,46.578,15.506,45.933,15.506z"/>
		<path style="fill:rgb(0,0,0);" d="M37.435,10.688c1.25-0.667,2.5-1.333,3.75-2c0.568-0.304,0.064-1.167-0.505-0.863
			c-1.25,0.667-2.5,1.333-3.75,2C36.361,10.128,36.867,10.991,37.435,10.688z"/>
		<path style="fill:rgb(0,0,0);" d="M27.55,4.278c0-1.265,0-2.529,0-3.794c0-0.645-1-0.645-1,0c0,1.265,0,2.529,0,3.794
			C26.55,4.923,27.55,4.923,27.55,4.278z"/>
		<path style="fill:rgb(0,0,0);" d="M16.358,10.185c0.5,0.395,1.213-0.307,0.707-0.707c-1.436-1.134-2.872-2.268-4.308-3.401
			c-0.5-0.395-1.213,0.308-0.707,0.707C13.486,7.918,14.922,9.052,16.358,10.185z"/>
		<path style="fill:rgb(0,0,0);" d="M36.931,22.862c1.25,0.667,2.5,1.333,3.75,2c0.568,0.303,1.074-0.56,0.505-0.863
			c-1.25-0.667-2.5-1.333-3.75-2C36.867,21.695,36.361,22.558,36.931,22.862z"/>
		<path style="fill:rgb(0,0,0);" d="M15.358,21.501c-1.436,1.134-2.872,2.268-4.308,3.401c-0.506,0.399,0.207,1.102,0.707,0.707
			c1.436-1.134,2.872-2.268,4.308-3.401C16.571,21.809,15.858,21.106,15.358,21.501z"/>
		<path style="fill:rgb(0,0,0);" d="M15.433,15.756c-2.583-0.333-5.167-0.667-7.75-1c-0.638-0.082-0.63,0.919,0,1
			c2.583,0.333,5.167,0.667,7.75,1C16.071,16.838,16.063,15.837,15.433,15.756z"/>
	</g>
</g>
<g>
</g>
<g>
</g>
<g>
</g>
<g>
</g>
<g>
</g>
<g>
</g>
<g>
</g>
<g>
</g>
<g>
</g>
<g>
</g>
<g>
</g>
<g>
</g>
<g>
</g>
<g>
</g>
<g>
</g>
</svg>
