<?xml version="1.0" encoding="iso-8859-1"?>
<!-- Generator: Adobe Illustrator 16.0.0, SVG Export Plug-In . SVG Version: 6.00 Build 0)  -->
<!DOCTYPE svg PUBLIC "-//W3C//DTD SVG 1.1//EN" "http://www.w3.org/Graphics/SVG/1.1/DTD/svg11.dtd">
<svg version="1.1" id="Capa_1" xmlns="http://www.w3.org/2000/svg" xmlns:xlink="http://www.w3.org/1999/xlink" x="0px" y="0px"
	 width="300.891px" height="300.891px" viewBox="0 0 300.891 300.891" style="enable-background:new 0 0 300.891 300.891;"
	 xml:space="preserve">
<g>
	<g id="Artwork_81_">
		<g id="Layer_5_81_">
			<g>
				<path d="M186.469,97.41c-20.185,0-32.993,22.506-36.022,22.506c-2.653,0-14.938-22.506-36.03-22.506
					c-20.516,0-37.271,16.92-38.364,37.414c-0.621,11.57,3.113,20.377,8.372,28.357c10.502,15.935,56.429,54.31,66.091,54.31
					c9.864,0,55.377-38.231,65.953-54.31c5.271-8.017,8.988-16.787,8.369-28.357C223.742,114.33,206.988,97.41,186.469,97.41z"/>
				<path d="M23.028,290.302l83.89,9.502c2.688,0.213,4.715-1.814,4.502-4.502l-9.501-83.888c-0.211-2.688-1.946-3.332-3.854-1.426
					l-22.192,22.193c-1.893,1.893-4.983,1.906-6.895,0.035c-44.327-44.744-44.202-117.201,0.38-161.783
					c44.713-44.713,117.462-44.713,162.174-0.002c44.711,44.711,44.712,117.463,0,162.176
					c-11.954,11.953-25.998,20.924-41.738,26.658c-9.304,3.389-14.093,13.676-10.706,22.975
					c3.389,9.299,13.675,14.092,22.973,10.703c20.691-7.539,39.136-19.312,54.815-34.992
					c58.688-58.688,58.688-154.178,0.001-212.865C198.189-13.6,102.699-13.6,44.011,45.088
					c-58.545,58.546-58.68,153.714-0.415,212.437l-0.014,0.014c1.907,1.908,1.905,5.027,0.001,6.935l-21.976,21.975
					C19.699,288.354,20.34,290.089,23.028,290.302z"/>
			</g>
		</g>
	</g>
</g>
<g>
</g>
<g>
</g>
<g>
</g>
<g>
</g>
<g>
</g>
<g>
</g>
<g>
</g>
<g>
</g>
<g>
</g>
<g>
</g>
<g>
</g>
<g>
</g>
<g>
</g>
<g>
</g>
<g>
</g>
</svg>
