<?xml version='1.0' encoding='utf-8'?>
<!DOCTYPE svg PUBLIC '-//W3C//DTD SVG 1.1//EN' 'http://www.w3.org/Graphics/SVG/1.1/DTD/svg11.dtd'>
<svg version="1.1" xmlns="http://www.w3.org/2000/svg" viewBox="0 0 512 512" xmlns:xlink="http://www.w3.org/1999/xlink" enable-background="new 0 0 512 512">
  <g>
    <g>
      <path d="m263.8,353.1l-60.4-327c-1.8-10-11.4-16.6-21.4-14.7-10,1.8-16.6,11.4-14.7,21.4l60.4,327.2c-31.5,14.7-49.1,50.1-40.3,85.1 10,39.7 50.2,63.7 89.9,53.8 39.7-10 63.7-50.2 53.8-89.9-8.2-32.1-36-54-67.3-55.9z"/>
      <path d="M52,120c-9.2-4.3-20.1-0.2-24.4,9c-4.3,9.2-0.2,20.1,9,24.4l121.7,56.2l-8.2-44.3L52,120z"/>
      <path d="m438.2,236.7c-30.8-11.9-64.7-1.8-84.4,22.6l-71.8-33.1 8.2,44.3 48.5,22.4c-6.1,34.2 12.6,69.1 46.2,82 38.2,14.7 81-4.2 95.8-42.4 14.7-38.2-4.3-81-42.5-95.8z"/>
    </g>
  </g>
</svg>
