<?xml version='1.0' encoding='utf-8'?>
<!DOCTYPE svg PUBLIC '-//W3C//DTD SVG 1.1//EN' 'http://www.w3.org/Graphics/SVG/1.1/DTD/svg11.dtd'>
<svg version="1.1" xmlns="http://www.w3.org/2000/svg" viewBox="0 0 512 512" xmlns:xlink="http://www.w3.org/1999/xlink" enable-background="new 0 0 512 512">
  <g>
    <g>
      <rect width="20.9" x="375.9" y="53.7" height="20.9"/>
      <rect width="20.9" x="323.8" y="53.7" height="20.9"/>
      <rect width="20.9" x="271.6" y="53.7" height="20.9"/>
      <path d="m164.3,252.9l-12.5-50h-11.5c0,0-13.6,50-13.6,51.1l-14.6-51.1h-11.5l19.8,64.6h12.6l13.6-50 12.5,50h11.5l19.8-64.6h-10.4l-15.7,50z"/>
      <path d="m253.9,252.9l-12.5-50h-11.5c0,0-13.6,50-13.6,51.1l-14.6-51.1h-11.5l19.8,64.6h11.5l13.6-50 13.6,50h11.5l19.8-64.6h-10.4l-15.7,50z"/>
      <path d="m338.4,267.5h11.5l20.9-64.6h-10.4l-15.6,50-12.5-50h-11.5c0,0-13.6,50-13.6,51.1l-14.6-51.1h-11.6l19.8,64.6h11.5l13.6-50 12.5,50z"/>
      <path d="m459.3,329v-318h-448.3v448.3h318c16.8,25.2 45.4,41.7 78.2,41.7 52.1,0 93.8-41.7 93.8-93.8 0-32.8-16.5-61.5-41.7-78.2zm-427.4-297.1h406.6v65.7h-406.6v-65.7zm0,406.5v-320h406.6v200.2c-9.8-3.4-20.3-5.3-31.3-5.3-52.1,0-93.8,41.7-93.8,93.8 0,11 1.9,21.5 5.3,31.3h-286.8zm375.3,41.7c-40.7,0-73-32.3-73-73s32.3-73 73-73 73,32.3 73,73-32.4,73-73,73z"/>
      <polygon points="394.7,419.7 372.8,397.8 358.2,412.4 394.7,448.9 456.2,387.4 441.6,372.8   "/>
    </g>
  </g>
</svg>
