<?xml version="1.0" encoding="iso-8859-1"?>
<!-- Generator: Adobe Illustrator 16.0.0, SVG Export Plug-In . SVG Version: 6.00 Build 0)  -->
<!DOCTYPE svg PUBLIC "-//W3C//DTD SVG 1.1//EN" "http://www.w3.org/Graphics/SVG/1.1/DTD/svg11.dtd">
<svg version="1.1" id="Capa_1" xmlns="http://www.w3.org/2000/svg" xmlns:xlink="http://www.w3.org/1999/xlink" x="0px" y="0px"
	 width="420.155px" height="420.155px" viewBox="0 0 420.155 420.155" style="enable-background:new 0 0 420.155 420.155;"
	 xml:space="preserve">
<g>
	<path d="M415.592,84.417h-44.846v0.018h-9.652c-8.896-23.551-31.409-40.445-57.925-40.929c-0.195,0-0.385-0.059-0.58-0.059
		c-0.111,0-0.2,0.018-0.289,0.018c-0.118,0-0.195-0.018-0.296-0.018c-0.2,0-0.378,0.059-0.579,0.059
		c-26.492,0.484-48.787,17.428-57.689,40.929h-8.522v-0.018H4.563C2.04,84.417,0,86.462,0,88.986v283.158
		c0,2.518,2.04,4.563,4.563,4.563h411.029c2.523,0,4.562-2.046,4.562-4.563V88.986C420.161,86.462,418.116,84.417,415.592,84.417z
		 M266.522,158.996c0-0.035,0.024-0.053,0.024-0.094c0-6.266,5.095-11.361,11.36-11.361c6.277,0,11.36,5.095,11.36,11.361v54.006
		c0,7.661,6.212,13.873,13.891,13.873c7.654,0,13.866-6.212,13.866-13.873v-54.006c0-18.486-12.897-33.981-30.163-38.042
		l50.603,0.115v102.927c0,19.553-15.9,35.471-35.447,35.471c-19.564,0-35.464-15.918-35.464-35.471v-64.82
		C266.546,159.053,266.522,159.041,266.522,158.996z M302.3,71.222c11.006,0.098,20.829,5.237,27.29,13.219h-54.35
		C281.636,76.482,291.324,71.313,302.3,71.222z M383.621,340.167H36.535V138.74l170.848,125.284c1.613,1.183,3.789,1.183,5.402,0
		l21.459-15.734c-2.465-7.258-3.854-15.008-3.854-23.087v-19.399l-20.31,14.895L74.065,120.958l163.519-0.212l31.527,0.073
		c-17.336,4.008-30.31,19.544-30.31,38.083v65c0,34.862,28.336,63.222,63.203,63.222c12.525,0,24.175-3.712,34.011-10.013
		l19.163-19.175c6.312-9.836,10.024-21.503,10.024-34.034V120.127h9.534l0.207,1.289v23.678l8.677-6.36V340.167z"/>
</g>
<g>
</g>
<g>
</g>
<g>
</g>
<g>
</g>
<g>
</g>
<g>
</g>
<g>
</g>
<g>
</g>
<g>
</g>
<g>
</g>
<g>
</g>
<g>
</g>
<g>
</g>
<g>
</g>
<g>
</g>
</svg>
