<?xml version="1.0" encoding="iso-8859-1"?>
<!-- Generator: Adobe Illustrator 19.0.0, SVG Export Plug-In . SVG Version: 6.00 Build 0)  -->
<svg version="1.1" id="Capa_1" xmlns="http://www.w3.org/2000/svg" xmlns:xlink="http://www.w3.org/1999/xlink" x="0px" y="0px"
	 viewBox="0 0 380 380" style="enable-background:new 0 0 380 380;" xml:space="preserve">
<g id="XMLID_31_">
	<path id="XMLID_469_" d="M335,115h-45V85h20V55H0v30h20v181.364C20,298.696,46.305,325,78.637,325h152.727
		c26.46,0,48.873-17.622,56.145-41.743l54.193-19.127C363.178,256.55,380,232.774,380,210v-50C380,135.187,359.814,115,335,115z
		 M231.363,295H78.637C62.847,295,50,282.154,50,266.364V85h210v181.364C260,282.154,247.153,295,231.363,295z M350,210
		c0,10.146-8.714,22.463-18.282,25.839L290,250.564V145h45c8.272,0,15,6.729,15,15V210z"/>
	<path id="XMLID_474_" d="M183.427,142.356c-9.639-11.046-19.379-17.956-19.789-18.245l-8.548-6.021l-8.606,5.937
		c-1.033,0.713-10.366,7.273-19.879,18.106c-13.644,15.535-20.854,32.346-20.854,48.617c0,21.927,14.407,40.546,34.25,46.906V265h30
		v-27.344c19.843-6.36,34.25-24.979,34.25-46.906C204.25,174.702,197.05,157.968,183.427,142.356z M155,210
		c-10.614,0-19.25-8.636-19.25-19.25c0-13.408,10.469-26.566,19.185-34.867c8.772,8.42,19.315,21.674,19.315,34.867
		C174.25,201.364,165.614,210,155,210z"/>
</g>
<g>
</g>
<g>
</g>
<g>
</g>
<g>
</g>
<g>
</g>
<g>
</g>
<g>
</g>
<g>
</g>
<g>
</g>
<g>
</g>
<g>
</g>
<g>
</g>
<g>
</g>
<g>
</g>
<g>
</g>
</svg>
