<?xml version="1.0" encoding="iso-8859-1"?>
<!-- Generator: Adobe Illustrator 19.0.0, SVG Export Plug-In . SVG Version: 6.00 Build 0)  -->
<svg version="1.1" id="Capa_1" xmlns="http://www.w3.org/2000/svg" xmlns:xlink="http://www.w3.org/1999/xlink" x="0px" y="0px"
	 viewBox="0 0 491.221 491.221" style="enable-background:new 0 0 491.221 491.221;" xml:space="preserve">
<g>
	<g>
		<path d="M286.759,265.464c20.348,10.548,48.104,14.689,59.297,10.176l-0.991,66.291c-0.101,6.722,5.267,12.253,11.989,12.354
			c0.063,0.001,0.123,0.001,0.185,0.001c6.638,0,12.068-5.331,12.167-11.99l1.857-124.21c13.299-2.823,32.679-31.887,41.379-57.638
			c18.858-55.809,9.833-122.862,9.833-122.862s-51.796,60.865-63.966,107.537c-0.661,2.534-1.224,5.138-1.708,7.777
			c-0.484-1.853-1.001-3.675-1.549-5.453c-17.35-56.298-73.771-113.919-73.771-113.919s3.47,88.178,20.9,133.153
			c9.8,25.284,31.553,50.669,44.496,54.1l-0.525,35.121c-7.367-11.358-21.921-24.826-36.107-33.508
			c-43.815-26.811-99.768-26.571-99.768-26.571S249.422,246.102,286.759,265.464z"/>
		<path d="M469.072,365.658c-31.406,3.593-87.745,19.126-124.612,21.428c-18.011,1.125-52.818-3.309-65.008-9.694
			c-21.301-11.158-20.304-31.242-20.304-31.242h52.87c10.51,0,19.03-8.518,19.03-19.027v-3.021c0-10.51-8.52-19.028-19.03-19.028
			c0,0-81.119-5.041-108.388-7.139c-23.076-1.775-67.2,4.058-90.53,23.33c-14.647,12.1-20.744,18.891-27.725,22.992
			C63.65,357.02,69.99,355.751,0,355.751v101.942c47.928-17.16,57.52-19.281,78.865-25.528c20.794-6.086,24.002-7.857,107.267,7.777
			c98.696,18.532,100.052,20.355,144.73,14.063c32.099-4.518,105.813-26.236,138.21-43.288c11.7-6.158,22.149-9.917,22.149-22.15
			v-0.76C491.222,375.573,481.226,364.267,469.072,365.658z"/>
	</g>
</g>
<g>
</g>
<g>
</g>
<g>
</g>
<g>
</g>
<g>
</g>
<g>
</g>
<g>
</g>
<g>
</g>
<g>
</g>
<g>
</g>
<g>
</g>
<g>
</g>
<g>
</g>
<g>
</g>
<g>
</g>
</svg>
